<?xml version="1.0" standalone="no"?>
<!DOCTYPE svg PUBLIC "-//W3C//DTD SVG 20010904//EN"
 "http://www.w3.org/TR/2001/REC-SVG-20010904/DTD/svg10.dtd">
<svg version="1.0" xmlns="http://www.w3.org/2000/svg"
 width="260.000000pt" height="260.000000pt" viewBox="0 0 260.000000 260.000000"
 preserveAspectRatio="xMidYMid meet">
<metadata>
Created by potrace 1.14, written by Peter Selinger 2001-2017
</metadata>
<g transform="translate(0.000000,260.000000) scale(0.100000,-0.100000)"
fill="#000000" stroke="none">
<path d="M1672 2426 c-36 -82 -98 -134 -300 -250 -221 -127 -249 -149 -287
-218 -26 -48 -30 -64 -32 -158 l-3 -105 21 55 c36 90 106 149 319 270 279 157
314 199 308 373 l-3 85 -23 -52z"/>
<path d="M1686 2175 c-11 -45 -63 -121 -105 -154 -20 -15 -121 -77 -225 -137
-110 -63 -207 -127 -232 -152 -56 -55 -74 -115 -74 -236 1 -87 1 -89 14 -54
21 60 64 125 102 156 20 17 117 76 217 133 224 129 249 147 283 206 24 40 29
61 32 138 5 107 0 146 -12 100z"/>
<path d="M1676 1862 c-34 -81 -94 -134 -269 -235 -260 -149 -352 -253 -352
-397 0 -51 6 -77 25 -115 26 -50 91 -106 140 -120 23 -6 22 -5 -5 13 -90 58
-119 153 -76 247 28 61 71 94 261 201 269 152 304 194 298 368 l-3 86 -19 -48z"/>
<path d="M730 1237 c0 -171 48 -285 170 -408 123 -124 257 -176 430 -166 161
9 278 64 389 182 102 110 151 235 151 393 l0 92 -32 0 -33 0 3 -77 c7 -149
-41 -276 -143 -378 -206 -206 -525 -207 -730 0 -63 63 -116 156 -134 235 -6
25 -11 84 -11 133 l0 87 -30 0 -30 0 0 -93z"/>
<path d="M903 1315 c-3 -9 -4 -55 -1 -103 5 -106 34 -178 103 -251 241 -257
672 -107 693 241 6 101 -1 128 -33 128 -25 0 -25 -1 -19 -64 15 -145 -71 -289
-208 -351 -92 -41 -189 -41 -280 2 -79 37 -137 94 -175 171 -24 49 -27 69 -28
150 0 89 -1 92 -23 92 -12 0 -25 -7 -29 -15z"/>
<path d="M1373 524 l-23 -5 0 -225 0 -224 30 0 30 0 0 85 0 85 68 0 c128 0
202 65 188 164 -12 80 -70 117 -190 121 -45 2 -91 1 -103 -1z m180 -66 c32
-17 46 -39 47 -73 0 -62 -51 -95 -147 -95 l-43 0 0 90 0 90 61 0 c33 0 70 -5
82 -12z"/>
<path d="M1768 523 l-28 -4 0 -220 c0 -200 2 -220 18 -227 9 -4 55 -7 102 -7
150 0 214 41 214 139 0 44 -4 53 -36 80 l-36 32 24 23 c18 17 24 34 24 65 0
81 -51 117 -174 121 -45 2 -93 1 -108 -2z m184 -65 c26 -13 41 -46 33 -75 -7
-31 -58 -53 -125 -53 l-50 0 0 69 c0 58 3 70 18 74 22 6 102 -3 124 -15z m13
-192 c37 -16 52 -48 41 -91 -9 -36 -54 -55 -131 -55 l-65 0 0 80 0 80 60 0
c33 0 76 -6 95 -14z"/>
<path d="M522 348 c3 -151 6 -177 23 -207 33 -56 67 -75 143 -79 57 -3 72 0
101 20 72 49 76 60 79 259 l4 179 -30 0 -30 0 -4 -162 c-3 -108 -8 -172 -17
-189 -18 -35 -54 -54 -104 -53 -32 1 -47 8 -69 33 l-28 31 0 170 0 170 -36 0
-36 0 4 -172z"/>
<path d="M970 295 l0 -225 150 0 150 0 0 25 0 25 -115 0 -115 0 0 80 0 80 95
0 c95 0 95 0 95 25 0 25 0 25 -95 25 l-95 0 0 70 0 70 105 0 105 0 0 25 0 25
-140 0 -140 0 0 -225z"/>
</g>
</svg>
