<?xml version="1.0" standalone="no"?>
<!DOCTYPE svg PUBLIC "-//W3C//DTD SVG 20010904//EN"
 "http://www.w3.org/TR/2001/REC-SVG-20010904/DTD/svg10.dtd">
<svg version="1.0" xmlns="http://www.w3.org/2000/svg"
 width="260.000000pt" height="260.000000pt" viewBox="0 0 260.000000 260.000000"
 preserveAspectRatio="xMidYMid meet">
<metadata>
Created by potrace 1.14, written by Peter Selinger 2001-2017
</metadata>
<g transform="translate(0.000000,260.000000) scale(0.100000,-0.100000)"
fill="#000000" stroke="none">
<path d="M1697 2516 c-14 -64 -62 -149 -109 -192 -23 -21 -126 -86 -226 -144
-216 -123 -251 -151 -288 -227 -25 -50 -29 -71 -32 -176 -3 -78 -1 -122 6
-126 7 -4 8 -19 2 -46 -12 -51 -13 -248 -1 -241 4 3 11 21 14 39 9 54 47 125
92 170 24 25 121 88 234 152 215 123 259 155 291 217 l22 43 -7 -39 c-10 -57
-57 -145 -102 -188 -21 -20 -105 -75 -187 -122 -82 -47 -173 -105 -203 -127
-62 -49 -117 -119 -139 -180 -20 -56 -21 -154 -2 -199 33 -77 112 -138 201
-154 45 -8 43 9 -1 19 -39 8 -102 62 -118 101 -33 78 -7 175 60 231 20 15 115
73 212 128 102 58 195 118 219 142 70 69 75 96 74 403 l-1 265 -22 -66 c-25
-76 -64 -138 -110 -172 -17 -13 -116 -73 -219 -133 -210 -121 -249 -150 -277
-202 -26 -50 -25 -17 2 55 33 88 94 141 298 257 212 120 252 148 284 196 39
59 47 105 44 235 -2 94 -5 112 -11 81z"/>
<path d="M727 1282 c-16 -133 37 -302 130 -414 119 -144 282 -215 473 -205
154 7 268 59 380 171 107 108 160 240 160 403 l0 93 -32 0 -33 0 3 -75 c5 -96
-11 -168 -55 -257 -65 -129 -191 -229 -334 -263 -328 -77 -640 176 -627 510
l3 85 -31 0 c-30 0 -31 -2 -37 -48z"/>
<path d="M904 1315 c-3 -8 -4 -54 -3 -103 3 -74 9 -97 36 -153 40 -80 120
-159 200 -197 52 -24 70 -27 163 -27 98 0 110 3 171 32 80 39 159 120 197 200
23 51 27 71 27 158 l0 100 -32 3 -31 3 10 -43 c30 -132 -54 -295 -187 -366
-45 -24 -60 -27 -155 -27 -95 0 -110 3 -155 27 -68 36 -128 101 -162 173 -24
51 -28 72 -27 148 0 85 -1 87 -23 87 -13 0 -26 -7 -29 -15z"/>
<path d="M524 516 c-3 -8 -4 -88 -2 -178 3 -182 12 -212 78 -255 46 -32 137
-32 191 -1 68 38 79 76 79 277 l0 172 -32 -3 -33 -3 -5 -177 c-5 -170 -6 -177
-29 -202 -34 -36 -107 -37 -148 -2 l-28 24 -5 179 -5 178 -28 3 c-17 2 -29 -2
-33 -12z"/>
<path d="M977 524 c-4 -4 -7 -108 -7 -231 l0 -223 150 0 150 0 0 25 0 25 -115
0 -115 0 0 80 0 80 95 0 c95 0 95 0 95 25 0 25 0 25 -95 25 l-95 0 0 70 0 70
111 0 110 0 -3 28 -3 27 -136 3 c-74 1 -138 -1 -142 -4z"/>
<path d="M1368 524 c-16 -5 -18 -25 -18 -230 l0 -224 30 0 29 0 3 83 3 82 81
5 c90 6 123 22 154 73 41 66 15 155 -54 191 -29 15 -63 21 -125 22 -48 2 -94
0 -103 -2z m208 -87 c64 -74 3 -147 -123 -147 l-43 0 0 91 0 91 71 -4 c63 -3
74 -7 95 -31z"/>
<path d="M1763 523 l-23 -4 0 -224 0 -223 68 -8 c83 -9 181 7 221 35 62 44 65
141 7 187 l-33 26 24 24 c35 35 33 111 -4 146 -16 14 -46 31 -68 37 -39 11
-147 13 -192 4z m202 -78 c31 -30 31 -47 2 -80 -19 -23 -33 -28 -90 -32 l-67
-6 0 72 0 71 65 0 c57 0 69 -3 90 -25z m-6 -176 c56 -20 69 -79 25 -120 -21
-20 -38 -24 -100 -27 l-74 -4 0 81 0 81 59 0 c32 0 72 -5 90 -11z"/>
</g>
</svg>
